<svg width="40" height="40" viewBox="0 0 40 40" fill="none" xmlns="http://www.w3.org/2000/svg">
<circle cx="20" cy="20" r="20" fill="#212123"/>
<path d="M10 12H13.0909L15.1618 22.2019C15.2325 22.5527 15.426 22.8678 15.7086 23.092C15.9911 23.3163 16.3446 23.4354 16.7073 23.4286H24.2182C24.5808 23.4354 24.9344 23.3163 25.2169 23.092C25.4994 22.8678 25.693 22.5527 25.7636 22.2019L27 15.8095H13.8636M16.9545 27.2381C16.9545 27.6589 16.6086 28 16.1818 28C15.7551 28 15.4091 27.6589 15.4091 27.2381C15.4091 26.8173 15.7551 26.4762 16.1818 26.4762C16.6086 26.4762 16.9545 26.8173 16.9545 27.2381ZM25.4545 27.2381C25.4545 27.6589 25.1086 28 24.6818 28C24.2551 28 23.9091 27.6589 23.9091 27.2381C23.9091 26.8173 24.2551 26.4762 24.6818 26.4762C25.1086 26.4762 25.4545 26.8173 25.4545 27.2381Z" stroke="#A9A9AA" stroke-width="1.5" stroke-linecap="round" stroke-linejoin="round"/>
</svg>
