<svg width="18" height="18" viewBox="0 0 18 18" fill="none" xmlns="http://www.w3.org/2000/svg">
<path d="M9.00191 4.37784C6.44966 4.37784 4.38341 6.4463 4.38341 8.99626C4.38341 11.5485 6.45191 13.6147 9.00191 13.6147C11.5542 13.6147 13.6204 11.5462 13.6204 8.99626C13.6204 6.44405 11.5519 4.37784 9.00191 4.37784ZM9.00191 11.994C7.34516 11.994 6.00416 10.6522 6.00416 8.99626C6.00416 7.34029 7.34591 5.99856 9.00191 5.99856C10.6579 5.99856 11.9997 7.34029 11.9997 8.99626C12.0004 10.6522 10.6587 11.994 9.00191 11.994Z" fill="#A9A9AA"/>
<path d="M12.7112 0.056539C11.0552 -0.0207096 6.95342 -0.0169597 5.29592 0.056539C3.83942 0.124788 2.55467 0.476532 1.51892 1.51226C-0.21208 3.24323 0.00917045 5.57569 0.00917045 8.99638C0.00917045 12.4973 -0.18583 14.7758 1.51892 16.4805C3.25667 18.2175 5.62292 17.9902 9.00317 17.9902C12.4712 17.9902 13.6682 17.9925 14.8944 17.5177C16.5617 16.8705 17.8202 15.3803 17.9432 12.7036C18.0212 11.0468 18.0167 6.94592 17.9432 5.28845C17.7947 2.12875 16.0989 0.212536 12.7112 0.056539ZM15.3324 15.3353C14.1977 16.47 12.6234 16.3688 8.98142 16.3688C5.23142 16.3688 3.72767 16.4243 2.63042 15.324C1.36667 14.0663 1.59542 12.0466 1.59542 8.98438C1.59542 4.8407 1.17017 1.85651 5.32892 1.64351C6.28442 1.60976 6.56567 1.59851 8.97092 1.59851L9.00467 1.62101C13.0014 1.62101 16.1372 1.20252 16.3254 5.36045C16.3682 6.30918 16.3779 6.59418 16.3779 8.99563C16.3772 12.7021 16.4477 14.2148 15.3324 15.3353Z" fill="#A9A9AA"/>
<path d="M13.8039 5.27482C14.4 5.27482 14.8832 4.79164 14.8832 4.19559C14.8832 3.59955 14.4 3.11636 13.8039 3.11636C13.2078 3.11636 12.7247 3.59955 12.7247 4.19559C12.7247 4.79164 13.2078 5.27482 13.8039 5.27482Z" fill="#A9A9AA"/>
</svg>
