<svg width="21" height="18" viewBox="0 0 21 18" fill="none" xmlns="http://www.w3.org/2000/svg">
<path d="M0.599609 1C0.599609 0.447715 1.04732 0 1.59961 0H19.5996C20.1519 0 20.5996 0.447715 20.5996 1C20.5996 1.55228 20.1519 2 19.5996 2H1.59961C1.04732 2 0.599609 1.55228 0.599609 1Z" fill="#686869"/>
<path d="M0.599609 9C0.599609 8.44772 1.04732 8 1.59961 8H19.5996C20.1519 8 20.5996 8.44772 20.5996 9C20.5996 9.55228 20.1519 10 19.5996 10H1.59961C1.04732 10 0.599609 9.55228 0.599609 9Z" fill="#686869"/>
<path d="M0.599609 17C0.599609 16.4477 1.04732 16 1.59961 16H19.5996C20.1519 16 20.5996 16.4477 20.5996 17C20.5996 17.5523 20.1519 18 19.5996 18H1.59961C1.04732 18 0.599609 17.5523 0.599609 17Z" fill="#686869"/>
</svg>
