<svg width="20" height="18" viewBox="0 0 20 18" fill="none" xmlns="http://www.w3.org/2000/svg">
<path d="M17.8 3.6C18.7941 3.6 19.6 2.79411 19.6 1.8C19.6 0.805887 18.7941 0 17.8 0C16.8059 0 16 0.805887 16 1.8C16 2.79411 16.8059 3.6 17.8 3.6Z" fill="white"/>
<path d="M17.8 10.8C18.7941 10.8 19.6 9.99411 19.6 9C19.6 8.00589 18.7941 7.2 17.8 7.2C16.8059 7.2 16 8.00589 16 9C16 9.99411 16.8059 10.8 17.8 10.8Z" fill="white"/>
<path d="M17.8 18C18.7941 18 19.6 17.1941 19.6 16.2C19.6 15.2059 18.7941 14.4 17.8 14.4C16.8059 14.4 16 15.2059 16 16.2C16 17.1941 16.8059 18 17.8 18Z" fill="white"/>
<path d="M9.8 3.6C10.7941 3.6 11.6 2.79411 11.6 1.8C11.6 0.805887 10.7941 0 9.8 0C8.80589 0 8 0.805887 8 1.8C8 2.79411 8.80589 3.6 9.8 3.6Z" fill="white"/>
<path d="M9.8 10.8C10.7941 10.8 11.6 9.99411 11.6 9C11.6 8.00589 10.7941 7.2 9.8 7.2C8.80589 7.2 8 8.00589 8 9C8 9.99411 8.80589 10.8 9.8 10.8Z" fill="white"/>
<path d="M9.8 18C10.7941 18 11.6 17.1941 11.6 16.2C11.6 15.2059 10.7941 14.4 9.8 14.4C8.80589 14.4 8 15.2059 8 16.2C8 17.1941 8.80589 18 9.8 18Z" fill="white"/>
<path d="M1.8 3.6C2.79411 3.6 3.6 2.79411 3.6 1.8C3.6 0.805887 2.79411 0 1.8 0C0.805887 0 0 0.805887 0 1.8C0 2.79411 0.805887 3.6 1.8 3.6Z" fill="white"/>
<path d="M1.8 10.8C2.79411 10.8 3.6 9.99411 3.6 9C3.6 8.00589 2.79411 7.2 1.8 7.2C0.805887 7.2 0 8.00589 0 9C0 9.99411 0.805887 10.8 1.8 10.8Z" fill="white"/>
<path d="M1.8 18C2.79411 18 3.6 17.1941 3.6 16.2C3.6 15.2059 2.79411 14.4 1.8 14.4C0.805887 14.4 0 15.2059 0 16.2C0 17.1941 0.805887 18 1.8 18Z" fill="white"/>
</svg>
