<svg width="15" height="6" viewBox="0 0 15 6" fill="none" xmlns="http://www.w3.org/2000/svg">
<path opacity="0.35" d="M0.327802 3.34785H11.5021V5.15202C11.5021 5.28247 11.5707 5.4018 11.68 5.46129C11.7893 5.52113 11.9205 5.51104 12.0209 5.43485L14.8622 3.28279C14.9488 3.21773 15 3.11197 15 2.99995C15 2.88793 14.9488 2.78217 14.8625 2.71712L12.0212 0.565056C11.9645 0.521917 11.8979 0.5 11.8306 0.5C11.7794 0.5 11.7279 0.512872 11.6803 0.538616C11.571 0.598106 11.5025 0.717781 11.5025 0.847892V2.65206H0.32813C0.147003 2.65206 0 2.80792 0 2.99995C0 3.19199 0.146674 3.34785 0.327802 3.34785Z" fill="white"/>
</svg>
