<svg width="18" height="15" viewBox="0 0 18 15" fill="none" xmlns="http://www.w3.org/2000/svg">
<path d="M0.317968 7.19143L4.46532 8.67078L6.07098 13.6125C6.09415 13.6859 6.13587 13.7527 6.19244 13.8071C6.24901 13.8614 6.31869 13.9015 6.39533 13.924C6.47196 13.9464 6.55319 13.9504 6.63183 13.9356C6.71047 13.9209 6.7841 13.8878 6.84621 13.8393L9.15869 12.0355C9.2766 11.9438 9.42284 11.8918 9.57473 11.8878C9.72662 11.8837 9.87566 11.9278 9.99872 12.0131L14.1689 14.9109C14.2349 14.9568 14.3119 14.986 14.3928 14.9961C14.4737 15.0062 14.556 14.9967 14.6321 14.9685C14.7082 14.9404 14.7757 14.8945 14.8286 14.835C14.8814 14.7755 14.9178 14.7042 14.9345 14.6278L17.9898 0.563072C18.0077 0.480738 18.002 0.395324 17.9734 0.315809C17.9448 0.236295 17.8944 0.165617 17.8274 0.111204C17.7604 0.0567918 17.6794 0.0206549 17.5928 0.0065921C17.5061 -0.00747072 17.4172 0.00105996 17.3352 0.0312874L0.313168 6.31623C0.220578 6.35038 0.141033 6.41068 0.0850982 6.48913C0.0291635 6.56757 -0.000514135 6.66045 6.74073e-06 6.75542C0.000527616 6.85039 0.0312224 6.94296 0.0880144 7.02084C0.144806 7.09872 0.225008 7.15822 0.317968 7.19143ZM5.81237 7.88459L13.9205 3.10599C13.9503 3.08907 13.9857 3.08324 14.0197 3.0896C14.0538 3.09597 14.0842 3.11409 14.1053 3.14052C14.1263 3.16695 14.1364 3.19986 14.1338 3.23298C14.1311 3.26611 14.1159 3.29714 14.0909 3.3202L7.39883 9.27206C7.16401 9.48131 7.01219 9.76198 6.96921 10.0663L6.7412 11.6823C6.73501 11.7281 6.71249 11.7705 6.67744 11.8022C6.64239 11.8339 6.59696 11.8531 6.54884 11.8565C6.50072 11.8599 6.45285 11.8472 6.41334 11.8207C6.37383 11.7942 6.34509 11.7555 6.33199 11.711L5.45596 8.76324C5.40717 8.59962 5.41559 8.42523 5.47993 8.26661C5.54427 8.10799 5.66101 7.97384 5.81237 7.88459Z" fill="#A9A9AA"/>
</svg>
