<svg width="34" height="40" viewBox="0 0 34 40" fill="none" xmlns="http://www.w3.org/2000/svg">
<path d="M27.9999 11.0564C28.011 8.87845 27.3754 6.74619 26.1735 4.92985C24.9716 3.1135 23.2576 1.69483 21.2486 0.85361C19.2396 0.0123894 17.0261 -0.213511 14.8887 0.204534C12.7512 0.622579 10.7859 1.66575 9.24185 3.20186C7.69783 4.73797 6.64456 6.69786 6.21553 8.83318C5.7865 10.9685 6.00102 13.1831 6.8319 15.1964C7.66278 17.2097 9.07262 18.931 10.8828 20.1422C12.6929 21.3534 14.8219 22 16.9999 22C19.9075 22 22.6969 20.8489 24.7582 18.7981C26.8194 16.7474 27.9849 13.964 27.9999 11.0564ZM9.38447 11.0564C9.3733 9.54788 9.81042 8.07001 10.6404 6.81027C11.4704 5.55053 12.6558 4.56568 14.0463 3.98063C15.4368 3.39558 16.9697 3.23669 18.4507 3.52413C19.9316 3.81157 21.2938 4.53238 22.3645 5.59513C23.4352 6.65788 24.1661 8.01469 24.4645 9.49344C24.763 10.9722 24.6155 12.5063 24.0408 13.9011C23.4661 15.2959 22.4901 16.4886 21.2365 17.3279C19.983 18.1672 18.5084 18.6153 16.9999 18.6154C14.9899 18.6154 13.0614 17.8209 11.6348 16.4049C10.2083 14.9889 9.39936 13.0663 9.38447 11.0564Z" fill="#A9A9AA"/>
<path d="M0.00091222 38.5592C-0.00621843 38.7501 0.0285166 38.9403 0.102956 39.1181C0.177395 39.2958 0.289944 39.4572 0.433599 39.5923C0.577254 39.7274 0.74894 39.8332 0.93797 39.9032C1.127 39.9732 1.32933 40.0058 1.53236 39.9991C1.93853 39.9991 2.32806 39.8474 2.61526 39.5774C2.90246 39.3074 3.06381 38.9411 3.06381 38.5592C3.06381 30.7836 9.03646 24.8799 17 24.8799C24.9635 24.8799 30.9362 30.7836 30.9362 38.5592C30.9362 38.9411 31.0975 39.3074 31.3847 39.5774C31.6719 39.8474 32.0615 39.9991 32.4676 39.9991C32.6707 40.0058 32.873 39.9732 33.062 39.9032C33.2511 39.8332 33.4227 39.7274 33.5664 39.5923C33.7101 39.4572 33.8226 39.2958 33.897 39.1181C33.9715 38.9403 34.0062 38.7501 33.9991 38.5592C33.9991 29.2957 26.5459 22 16.9999 22C7.45382 22 0.00091222 29.2957 0.00091222 38.5592Z" fill="#A9A9AA"/>
</svg>
