<svg width="96" height="16" viewBox="0 0 96 16" fill="none" xmlns="http://www.w3.org/2000/svg">
<path d="M7.5 1L9.8175 5.60778L15 6.35121L11.25 9.93586L12.135 15L7.5 12.6078L2.865 15L3.75 9.93586L0 6.35121L5.1825 5.60778L7.5 1Z" fill="#FFBC00"/>
<path d="M27.5 1L29.8175 5.60778L35 6.35121L31.25 9.93586L32.135 15L27.5 12.6078L22.865 15L23.75 9.93586L20 6.35121L25.1825 5.60778L27.5 1Z" fill="#FFBC00"/>
<path d="M47.5 1L49.8175 5.60778L55 6.35121L51.25 9.93586L52.135 15L47.5 12.6078L42.865 15L43.75 9.93586L40 6.35121L45.1825 5.60778L47.5 1Z" fill="#FFBC00"/>
<path d="M67.5 1L69.8175 5.60778L75 6.35121L71.25 9.93586L72.135 15L67.5 12.6078L62.865 15L63.75 9.93586L60 6.35121L65.1825 5.60778L67.5 1Z" stroke="#A9A9AA" stroke-linecap="round" stroke-linejoin="round"/>
<path d="M87.5 1L89.8175 5.60778L95 6.35121L91.25 9.93586L92.135 15L87.5 12.6078L82.865 15L83.75 9.93586L80 6.35121L85.1825 5.60778L87.5 1Z" stroke="#A9A9AA" stroke-linecap="round" stroke-linejoin="round"/>
</svg>
